<svg xmlns="http://www.w3.org/2000/svg" xmlns:xlink="http://www.w3.org/1999/xlink" viewBox="0 0 475.43 76.94"><defs><style>.cls-1{fill:none;}.cls-2{font-size:62.67px;font-family:Lexend-SemiBold, Lexend;font-weight:600;}.cls-2,.cls-8{fill:#fff;}.cls-3{letter-spacing:-0.03em;}.cls-4{fill:#cb8252;}.cls-5{fill:#a56b44;}.cls-6{fill:#1c3c44;}.cls-7{clip-path:url(#clip-path);}.cls-9{fill:#48bd9e;}</style><clipPath id="clip-path" transform="translate(0 -1.06)"><rect class="cls-1" x="376.26" width="58.73" height="60.66"/></clipPath></defs><title>Asset 1</title><g id="Layer_2" data-name="Layer 2"><g id="Layer_1-2" data-name="Layer 1"><text class="cls-2" transform="translate(0 59.58)"><tspan xml:space="preserve">TR  VELHO</tspan><tspan class="cls-3" x="343.01" y="0" xml:space="preserve">S   A</tspan></text><path class="cls-4" d="M426.49,20.34c-.07.76-.12,1.52-.24,2.27a2,2,0,0,1-2.34,1.68c-1.49-.16-3-.37-4.47-.54l-8.7-1a.78.78,0,0,1-.63.09l-6.72-.8a1.34,1.34,0,0,1-.77-.28l-12-1.46c-.62-.08-1.25-.14-1.88-.21a2.23,2.23,0,0,1-1.56-.91c-1.43-1.9-2.87-3.78-4.29-5.69a2.14,2.14,0,0,1,.38-3.15c1.76-1.46,3.54-2.91,5.3-4.38a2.24,2.24,0,0,1,1.8-.59l6.83.82,5.41.67a.87.87,0,0,1,.68-.13c2.24.3,4.48.54,6.71.82a1.19,1.19,0,0,1,.76.3l7.89.93c2.24.27,4.47.56,6.71.81a2.18,2.18,0,0,1,2,2.76c-.08.57-.13,1.15-.2,1.72-.2.2-.44.12-.68.1-5.9-.68-11.79-1.41-17.69-2.12a3,3,0,0,0-.89,0,.76.76,0,0,0-.68.67.83.83,0,0,0,.44.87,1.31,1.31,0,0,0,.51.15c3.85.46,7.7.94,11.56,1.39,2.16.26,4.32.55,6.48.78a1.08,1.08,0,0,1,.72.27l-.24,2.11c-.18.18-.4.13-.62.11-1.37-.19-2.74-.31-4.11-.51a1.37,1.37,0,0,0-.35,0,.93.93,0,0,0-.86.79.86.86,0,0,0,.7.93c1,.19,2,.22,3,.39A4.79,4.79,0,0,1,426.49,20.34Z" transform="translate(0 -1.06)"/><path class="cls-4" d="M387.41,33.59l.24-2.34c1.28.26,2.59.36,3.88.51a.89.89,0,0,0,1.05-.76.84.84,0,0,0-.76-.94c-.95-.2-1.92-.26-2.88-.38a1.67,1.67,0,0,1-1.06-.3c.07-.7.1-1.4.21-2.09a2,2,0,0,1,2.24-1.86c1.51.13,3,.34,4.53.52l7.75.95a.8.8,0,0,1,.62-.11c2.29.27,4.58.56,6.88.82a1,1,0,0,1,.63.28l7.83.93c2.24.27,4.48.57,6.72.81a2.78,2.78,0,0,1,2.1,1.2c1.32,1.8,2.69,3.56,4,5.34a2.17,2.17,0,0,1-.34,3.25c-1.77,1.49-3.57,2.95-5.34,4.44a2.6,2.6,0,0,1-2.18.48c-4.28-.53-8.55-1-12.83-1.55-.44.27-.9.07-1.33,0-2-.25-4.06-.5-6.09-.72a1.15,1.15,0,0,1-.7-.29l-11-1.33c-.87-.11-1.73-.21-2.6-.3a2.1,2.1,0,0,1-2.07-2.5c.05-.66.16-1.31.24-2a1,1,0,0,1,.79-.13q9.87,1.22,19.75,2.4a2.49,2.49,0,0,0,.77,0,.75.75,0,0,0,.68-.67.83.83,0,0,0-.45-.87,1.26,1.26,0,0,0-.51-.15c-3.4-.43-6.8-.83-10.2-1.25L389.12,34A3.39,3.39,0,0,1,387.41,33.59Z" transform="translate(0 -1.06)"/><path class="cls-5" d="M410.75,7.81l-8.15-1,0-3.53a2,2,0,0,1,2.06-2.21c1.32,0,2.65,0,4,0a2,2,0,0,1,2.06,2.21C410.74,4.8,410.74,6.3,410.75,7.81Z" transform="translate(0 -1.06)"/><path class="cls-6" d="M387.41,33.59l5.92.72,4.52.54c1.52.17,3,.34,4.58.53l5.68.71a3,3,0,0,1,.52.09,1,1,0,0,1,.78,1.15.93.93,0,0,1-1,.87c-1-.07-2-.19-2.94-.3-1.57-.18-3.13-.39-4.69-.57l-4.35-.52-4.62-.59-4.58-.51A9.42,9.42,0,0,1,387.41,33.59Z" transform="translate(0 -1.06)"/><path class="cls-6" d="M427,16.13l-5.64-.67c-1.57-.18-3.13-.38-4.7-.57l-4.52-.53-3.81-.47a2.82,2.82,0,0,1-.52-.09,1.05,1.05,0,0,1-.74-1.18.92.92,0,0,1,1-.83c1,.06,2,.17,2.94.29,1.59.18,3.17.38,4.75.58l4.64.57,4.58.54,2.23.26A14.66,14.66,0,0,1,427,16.13Z" transform="translate(0 -1.06)"/><path class="cls-5" d="M410.74,27.89l-4-.48-4.15-.51c0-1.73,0-3.46,0-5.18l4.61.57,3.51.42Z" transform="translate(0 -1.06)"/><path class="cls-6" d="M426.49,20.34l-5-.61a1,1,0,0,1-.94-1.13,1.08,1.08,0,0,1,1.17-1c.79.07,1.57.18,2.35.28l2.63.33A12.28,12.28,0,0,1,426.49,20.34Z" transform="translate(0 -1.06)"/><path class="cls-6" d="M387.88,29.38c1.32.17,2.65.32,4,.51a1,1,0,0,1,.92,1.17,1.09,1.09,0,0,1-1.27.89c-1.15-.16-2.3-.3-3.45-.44-.18,0-.36,0-.4-.26A10.62,10.62,0,0,1,387.88,29.38Z" transform="translate(0 -1.06)"/><path class="cls-6" d="M395.93,14.52l4.57.55,4.64.56,4.69.58,4.58.54c.74.09,1.49.16,2.23.27a1,1,0,0,1,.93,1.09,1.07,1.07,0,0,1-1.14,1c-1.25-.17-2.5-.28-3.76-.43L408,18.11l-5.69-.71-5.63-.65c-.34,0-.67-.1-1-.12-.78-.07-1.24-.49-1.22-1.15S394.89,14.49,395.93,14.52Z" transform="translate(0 -1.06)"/><path class="cls-6" d="M397.13,10.4c1,.12,1.95.22,2.92.39a1,1,0,0,1,.82,1.26,1,1,0,0,1-1.21.8c-.84-.12-1.69-.22-2.53-.31a1.5,1.5,0,0,1-.89-.29,1,1,0,0,1-.32-1.17A1,1,0,0,1,397.13,10.4Z" transform="translate(0 -1.06)"/><path class="cls-6" d="M400.12,30.87c1.61.18,3.2.35,4.78.54s3,.4,4.51.58l4.58.52,4.81.6c1,.12,1.46.89,1,1.7a.87.87,0,0,1-.93.41c-1.25-.13-2.5-.26-3.76-.41l-4.63-.58-5.8-.72L400,33a1.16,1.16,0,0,1-1.15-.81,1,1,0,0,1,.38-1.16C399.52,30.8,399.83,30.91,400.12,30.87Z" transform="translate(0 -1.06)"/><path class="cls-6" d="M418.13,39.43c-1.49-.19-3.15-.39-4.8-.61a1.05,1.05,0,1,1,.28-2.09c1.64.19,3.27.4,4.91.6a1.11,1.11,0,0,1,1,1.12C419.45,39.08,419,39.45,418.13,39.43Z" transform="translate(0 -1.06)"/><g class="cls-7"><path class="cls-5" d="M402.62,41.8l8.12,1c0,5.68-.05,11.36,0,17,0,1.64-.89,2.7-2.5,2.61-1.13-.07-2.26,0-3.38,0a2.07,2.07,0,0,1-2.24-2.34Q402.62,50.93,402.62,41.8Z" transform="translate(0 -1.06)"/></g><path class="cls-8" d="M112.44,9.55a1.63,1.63,0,0,1,.58,2.12c-.79,1.68-1.56,3.37-2.42,5a1.64,1.64,0,0,0,0,1.67c1.32,2.77,2.6,5.56,3.91,8.34,1.19,2.54,2.4,5.08,3.59,7.63,1,2.14,2,4.28,3,6.42l2.79,5.92,2.69,5.76,2.37,5.15a.34.34,0,0,0,.36.23,8.66,8.66,0,0,0,1,0c1.12-.18,1.54,1.28,1.13,2.17a1,1,0,0,1-1,.66H118.89c-.26,0-.37-.11-.49-.37-1.07-2.32-2.15-4.63-3.22-7-1-2.16-2-4.32-3-6.47q-1.27-2.76-2.58-5.48a.9.9,0,0,0-1.65,0c-.8,1.62-1.58,3.25-2.36,4.87q-1.45,3-2.89,6t-2.81,5.9l-1.05,2.2a.41.41,0,0,1-.43.27H86.78c-.63,0-.82-.52-1-1v-.8c.19-.85.51-1.2,1.29-1.11s1.39-.25,1.79-1.17c.83-1.91,1.78-3.76,2.68-5.63,1.21-2.49,2.42-5,3.61-7.47q2.42-5,4.84-10,2.65-5.52,5.32-11c.67-1.38,1.31-2.79,2-4.15a1.36,1.36,0,0,0,0-1.38c-.84-1.64-1.57-3.33-2.35-5A2,2,0,0,1,105,9.92a.67.67,0,0,1,.63-.41h.46c.43,0,.6.31.77.65.67,1.35,1.28,2.74,1.93,4.1a1.67,1.67,0,0,0,.17.31c.34-.55.56-1.15.85-1.7.46-.89.85-1.84,1.33-2.73.18-.33.37-.67.79-.63A1.56,1.56,0,0,1,112.44,9.55Z" transform="translate(0 -1.06)"/><path class="cls-9" d="M101.2,60.59l1-2.15c.85-1.79,1.71-3.57,2.57-5.36l2.65-5.49c.39-.82.77-1.65,1.16-2.47,0-.08.06-.21.17-.21s.12.12.16.2c1.49,3.23,3,6.46,4.47,9.69.82,1.78,1.67,3.56,2.5,5.35.06.13.09.27.15.44Z" transform="translate(0 -1.06)"/></g></g></svg>