<svg viewBox="0 0 49.89579207920792 59.78412" xmlns:xlink="http://www.w3.org/1999/xlink" xmlns="http://www.w3.org/2000/svg" style="max-height: 500px" width="49.89579207920792" height="59.78412"><defs><style>.cls-1{fill:none;}.cls-2{fill:#cb8252;}.cls-3{fill:#a56b44;}.cls-4{fill:#1c3c44;}.cls-5{clip-path:url(#clip-path);}</style><clipPath transform="translate(-6.1 -1.06)" id="clip-path"><rect height="60.66" width="58.73" class="cls-1"/></clipPath></defs><title>Asset 1</title><g data-name="Layer 2" id="Layer_2"><g data-name="Layer 1" id="Layer_1-2"><path transform="translate(-6.1 -1.06)" d="M50.23,20.34c-.07.76-.12,1.52-.24,2.27a2,2,0,0,1-2.33,1.68c-1.5-.16-3-.37-4.48-.54l-8.7-1a.78.78,0,0,1-.63.09L27.13,22a1.34,1.34,0,0,1-.77-.28l-12-1.46c-.62-.08-1.25-.14-1.88-.21a2.23,2.23,0,0,1-1.56-.91C9.48,17.24,8,15.36,6.62,13.45A2.14,2.14,0,0,1,7,10.3c1.76-1.46,3.54-2.91,5.3-4.38a2.25,2.25,0,0,1,1.8-.59l6.83.82,5.41.67A.88.88,0,0,1,27,6.69c2.23.3,4.47.54,6.7.82a1.19,1.19,0,0,1,.76.3l7.89.93c2.24.27,4.47.56,6.71.81a2.18,2.18,0,0,1,2,2.76c-.08.57-.13,1.15-.2,1.72-.2.2-.44.12-.68.1-5.9-.68-11.79-1.41-17.69-2.12a2.89,2.89,0,0,0-.88,0,.76.76,0,0,0-.69.67.83.83,0,0,0,.44.87,1.31,1.31,0,0,0,.51.15c3.85.46,7.7.94,11.56,1.39,2.16.26,4.32.55,6.48.78a1.08,1.08,0,0,1,.72.27l-.24,2.11c-.18.18-.4.13-.62.11-1.36-.19-2.74-.31-4.11-.51a1.37,1.37,0,0,0-.35,0,.93.93,0,0,0-.86.79.86.86,0,0,0,.71.93c1,.19,2,.22,3,.39A4.78,4.78,0,0,1,50.23,20.34Z" class="cls-2"/><path transform="translate(-6.1 -1.06)" d="M11.15,33.59l.24-2.34c1.29.26,2.59.36,3.89.51a.89.89,0,0,0,1-.76.83.83,0,0,0-.76-.94c-1-.2-1.92-.26-2.88-.38a1.68,1.68,0,0,1-1.06-.3c.07-.7.1-1.4.21-2.09a2,2,0,0,1,2.24-1.86c1.52.13,3,.34,4.53.52l7.75.95a.8.8,0,0,1,.62-.11c2.3.27,4.58.56,6.88.82a.94.94,0,0,1,.63.28l7.84.93c2.23.27,4.47.57,6.71.81a2.78,2.78,0,0,1,2.1,1.2c1.32,1.8,2.69,3.56,4,5.34a2.17,2.17,0,0,1-.34,3.25c-1.77,1.49-3.57,2.95-5.33,4.44a2.62,2.62,0,0,1-2.19.48c-4.27-.53-8.55-1-12.83-1.55-.44.27-.9.07-1.33,0-2-.25-4.06-.5-6.09-.72a1.15,1.15,0,0,1-.7-.29l-11-1.33-2.59-.3a2.11,2.11,0,0,1-2.08-2.5c.05-.66.16-1.31.24-2a1,1,0,0,1,.79-.13L31.47,38a2.49,2.49,0,0,0,.77,0,.75.75,0,0,0,.68-.67.83.83,0,0,0-.45-.87,1.26,1.26,0,0,0-.51-.15c-3.39-.43-6.79-.83-10.19-1.25L12.86,34A3.39,3.39,0,0,1,11.15,33.59Z" class="cls-2"/><path transform="translate(-6.1 -1.06)" d="M34.49,7.81l-8.15-1,0-3.53a2,2,0,0,1,2.06-2.21c1.32,0,2.65,0,4,0a2,2,0,0,1,2.06,2.21C34.48,4.8,34.48,6.3,34.49,7.81Z" class="cls-3"/><path transform="translate(-6.1 -1.06)" d="M11.15,33.59l5.92.72,4.52.54c1.52.17,3.05.34,4.58.53l5.68.71a2.82,2.82,0,0,1,.52.09,1,1,0,0,1,.78,1.15.93.93,0,0,1-1,.87c-1-.07-2-.19-2.94-.3-1.57-.18-3.13-.39-4.69-.57l-4.34-.52-4.63-.59-4.58-.51A10,10,0,0,1,11.15,33.59Z" class="cls-4"/><path transform="translate(-6.1 -1.06)" d="M50.71,16.13l-5.64-.67-4.69-.57-4.53-.53L32,13.89a3,3,0,0,1-.52-.09,1.05,1.05,0,0,1-.74-1.18.92.92,0,0,1,1-.83c1,.06,2,.17,2.94.29,1.59.18,3.17.38,4.76.58l4.63.57,4.58.54,2.23.26A14.66,14.66,0,0,1,50.71,16.13Z" class="cls-4"/><path transform="translate(-6.1 -1.06)" d="M34.48,27.89l-4-.48-4.16-.51c0-1.73,0-3.46,0-5.18l4.61.57,3.51.42Z" class="cls-3"/><path transform="translate(-6.1 -1.06)" d="M50.23,20.34l-5-.61a1.06,1.06,0,0,1-.94-1.13,1.08,1.08,0,0,1,1.17-1c.79.07,1.57.18,2.35.28l2.63.33A11.36,11.36,0,0,1,50.23,20.34Z" class="cls-4"/><path transform="translate(-6.1 -1.06)" d="M11.62,29.38c1.32.17,2.65.32,4,.51a1,1,0,0,1,.92,1.17,1.09,1.09,0,0,1-1.27.89c-1.15-.16-2.3-.3-3.45-.44-.18,0-.36,0-.4-.26A10.62,10.62,0,0,1,11.62,29.38Z" class="cls-4"/><path transform="translate(-6.1 -1.06)" d="M19.67,14.52l4.57.55,4.64.56,4.69.58,4.58.54c.74.09,1.49.16,2.23.27a1,1,0,0,1,.93,1.09,1.06,1.06,0,0,1-1.14,1c-1.25-.17-2.5-.28-3.75-.43l-4.7-.58L26,17.4l-5.63-.65c-.33,0-.67-.1-1-.12-.77-.07-1.23-.49-1.22-1.15S18.63,14.49,19.67,14.52Z" class="cls-4"/><path transform="translate(-6.1 -1.06)" d="M20.87,10.4c1,.12,1.95.22,2.93.39a1,1,0,0,1,.81,1.26,1,1,0,0,1-1.21.8c-.84-.12-1.68-.22-2.53-.31a1.45,1.45,0,0,1-.88-.29,1,1,0,0,1-.33-1.17A1,1,0,0,1,20.87,10.4Z" class="cls-4"/><path transform="translate(-6.1 -1.06)" d="M23.86,30.87c1.61.18,3.2.35,4.78.54s3,.4,4.51.58l4.58.52,4.81.6c1,.12,1.46.89,1,1.7a.86.86,0,0,1-.92.41c-1.26-.13-2.51-.26-3.76-.41l-4.64-.58-5.8-.72L23.74,33a1.16,1.16,0,0,1-1.15-.81A1,1,0,0,1,23,31C23.26,30.8,23.58,30.91,23.86,30.87Z" class="cls-4"/><path transform="translate(-6.1 -1.06)" d="M41.87,39.43c-1.49-.19-3.15-.39-4.8-.61a1.05,1.05,0,1,1,.28-2.09c1.64.19,3.28.4,4.91.6a1.11,1.11,0,0,1,1,1.12C43.19,39.08,42.74,39.45,41.87,39.43Z" class="cls-4"/><g class="cls-5"><path transform="translate(-6.1 -1.06)" d="M26.36,41.8l8.12,1c0,5.68,0,11.36,0,17,0,1.64-.89,2.7-2.5,2.61-1.12-.07-2.26,0-3.38,0a2.07,2.07,0,0,1-2.24-2.34Q26.35,50.93,26.36,41.8Z" class="cls-3"/></g></g></g></svg>